<?xml version="1.0" encoding="UTF-8" standalone="no"?>
<!-- Created with Inkscape (http://www.inkscape.org/) -->

<svg
   width="110.81215mm"
   height="24.3444mm"
   viewBox="0 0 110.81215 24.3444"
   version="1.1"
   id="svg1"
   xml:space="preserve"
   xmlns:xlink="http://www.w3.org/1999/xlink"
   xmlns="http://www.w3.org/2000/svg"
   xmlns:svg="http://www.w3.org/2000/svg"><defs
     id="defs1"><linearGradient
       id="linearGradient111"><stop
         style="stop-color:#205896;stop-opacity:1;"
         offset="0.09071274"
         id="stop110" /><stop
         style="stop-color:#37849c;stop-opacity:1;"
         offset="0.46436286"
         id="stop112" /><stop
         style="stop-color:#5bc6a5;stop-opacity:1;"
         offset="1"
         id="stop111" /></linearGradient><linearGradient
       id="linearGradient90"><stop
         style="stop-color:#205896;stop-opacity:1;"
         offset="0"
         id="stop90" /><stop
         style="stop-color:#5bc6a5;stop-opacity:1;"
         offset="1"
         id="stop91" /></linearGradient><linearGradient
       xlink:href="#linearGradient111"
       id="linearGradient91"
       x1="18.573824"
       y1="110.44492"
       x2="129.38597"
       y2="110.44492"
       gradientUnits="userSpaceOnUse" /><linearGradient
       xlink:href="#linearGradient90"
       id="linearGradient92"
       gradientUnits="userSpaceOnUse"
       x1="18.573824"
       y1="110.44492"
       x2="129.38597"
       y2="110.44492" /><linearGradient
       xlink:href="#linearGradient90"
       id="linearGradient93"
       gradientUnits="userSpaceOnUse"
       x1="18.573824"
       y1="110.44492"
       x2="129.38597"
       y2="110.44492" /><linearGradient
       xlink:href="#linearGradient90"
       id="linearGradient94"
       gradientUnits="userSpaceOnUse"
       x1="18.573824"
       y1="110.44492"
       x2="129.38597"
       y2="110.44492" /><linearGradient
       xlink:href="#linearGradient90"
       id="linearGradient95"
       gradientUnits="userSpaceOnUse"
       x1="18.573824"
       y1="110.44492"
       x2="129.38597"
       y2="110.44492" /><linearGradient
       xlink:href="#linearGradient90"
       id="linearGradient96"
       gradientUnits="userSpaceOnUse"
       x1="18.573824"
       y1="110.44492"
       x2="129.38597"
       y2="110.44492" /><linearGradient
       xlink:href="#linearGradient90"
       id="linearGradient97"
       gradientUnits="userSpaceOnUse"
       x1="18.573824"
       y1="110.44492"
       x2="129.38597"
       y2="110.44492" /><linearGradient
       xlink:href="#linearGradient90"
       id="linearGradient98"
       gradientUnits="userSpaceOnUse"
       x1="18.573824"
       y1="110.44492"
       x2="129.38597"
       y2="110.44492" /><linearGradient
       xlink:href="#linearGradient90"
       id="linearGradient99"
       gradientUnits="userSpaceOnUse"
       x1="18.573824"
       y1="110.44492"
       x2="129.38597"
       y2="110.44492" /><linearGradient
       xlink:href="#linearGradient90"
       id="linearGradient100"
       gradientUnits="userSpaceOnUse"
       x1="18.573824"
       y1="110.44492"
       x2="129.38597"
       y2="110.44492" /><linearGradient
       xlink:href="#linearGradient90"
       id="linearGradient101"
       gradientUnits="userSpaceOnUse"
       x1="18.573824"
       y1="110.44492"
       x2="129.38597"
       y2="110.44492" /><linearGradient
       xlink:href="#linearGradient90"
       id="linearGradient102"
       gradientUnits="userSpaceOnUse"
       x1="18.573824"
       y1="110.44492"
       x2="129.38597"
       y2="110.44492" /><linearGradient
       xlink:href="#linearGradient90"
       id="linearGradient103"
       gradientUnits="userSpaceOnUse"
       x1="18.573824"
       y1="110.44492"
       x2="129.38597"
       y2="110.44492" /><linearGradient
       xlink:href="#linearGradient90"
       id="linearGradient104"
       gradientUnits="userSpaceOnUse"
       x1="18.573824"
       y1="110.44492"
       x2="129.38597"
       y2="110.44492" /><linearGradient
       xlink:href="#linearGradient90"
       id="linearGradient105"
       gradientUnits="userSpaceOnUse"
       x1="18.573824"
       y1="110.44492"
       x2="129.38597"
       y2="110.44492" /><linearGradient
       xlink:href="#linearGradient90"
       id="linearGradient106"
       gradientUnits="userSpaceOnUse"
       x1="18.573824"
       y1="110.44492"
       x2="129.38597"
       y2="110.44492" /><linearGradient
       xlink:href="#linearGradient90"
       id="linearGradient107"
       gradientUnits="userSpaceOnUse"
       x1="18.573824"
       y1="110.44492"
       x2="129.38597"
       y2="110.44492" /><linearGradient
       xlink:href="#linearGradient90"
       id="linearGradient108"
       gradientUnits="userSpaceOnUse"
       x1="18.573824"
       y1="110.44492"
       x2="129.38597"
       y2="110.44492" /><linearGradient
       xlink:href="#linearGradient90"
       id="linearGradient109"
       gradientUnits="userSpaceOnUse"
       x1="18.573824"
       y1="110.44492"
       x2="129.38597"
       y2="110.44492" /><linearGradient
       xlink:href="#linearGradient90"
       id="linearGradient110"
       gradientUnits="userSpaceOnUse"
       x1="18.573824"
       y1="110.44492"
       x2="129.38597"
       y2="110.44492" /></defs><g
     id="layer1"
     transform="translate(-18.054806,-62.124506)"><g
       id="g54"><g
         id="g73"
         style="fill:url(#linearGradient91)"
         transform="translate(-0.51901652,-36.148213)"><path
           d="m 24.001634,118.78244 c 3.679368,0 5.932464,-1.85002 6.376882,-4.55787 0.444418,-2.69752 -1.622643,-3.87574 -3.793056,-4.42351 l -1.374595,-0.37207 c -1.209231,-0.31006 -2.490808,-0.83716 -2.273767,-2.12907 0.206706,-1.15756 1.38493,-2.01539 3.131597,-2.01539 1.663983,0 3.71577,1.44127 3.633087,2.75385 l 1.958668,-1.37862 c -0.531186,-2.64828 -2.108758,-3.8189 -5.354043,-3.8189 -3.23495,0 -5.756764,1.92691 -6.190847,4.64509 -0.361735,2.24276 1.054201,3.49333 3.41065,4.12379 l 1.674319,0.45475 c 1.622643,0.43408 2.635502,0.94051 2.428796,2.13941 -0.217041,1.33325 -1.643313,2.22209 -3.462326,2.22209 -1.736331,0 -2.976567,-0.78549 -2.831873,-2.40813 l -2.718185,-1.25573 c -0.382406,3.04891 1.808678,6.02031 5.384693,6.02031 z"
           id="use67"
           style="font-style:italic;font-weight:600;font-size:21.1667px;font-family:Inter;-inkscape-font-specification:'Inter, Semi-Bold Italic';fill:url(#linearGradient92);fill-opacity:1;stroke-width:0.264583"
           aria-label="S" /><path
           d="m 28.768553,121.49136 2.153399,0.92557 1.023195,-6.22185 h 0.15503 c 0.279053,0.82682 1.002524,2.1084 3.069585,2.1084 3.76205,0 5.705087,-3.91708 5.705087,-7.31739 0,-2.96624 -1.663984,-4.58888 -4.030768,-4.58888 -1.974043,0 -3.038579,1.18856 -3.58635,2.05673 h -0.09302 l 0.33073,-1.91203 -2.691985,1.86281 z m 5.729414,-5.39964 c -1.374595,0 -1.899493,-0.98185 -1.899493,-2.53215 0,-2.29443 1.051998,-4.95061 3.449789,-4.95061 1.436607,0 2.098066,1.01286 2.098066,2.51148 0,2.09807 -1.18856,4.97128 -3.648362,4.97128 z"
           id="use68"
           style="font-style:italic;font-weight:600;font-size:21.1667px;font-family:Inter;-inkscape-font-specification:'Inter, Semi-Bold Italic';fill:url(#linearGradient93);fill-opacity:1;stroke-width:0.264583"
           aria-label="p" /><path
           d="m 45.358811,118.6946 c 2.57349,0 4.609545,-1.2609 5.405363,-3.21428 l -0.272946,-0.78548 c -0.454754,0.95085 -3.664804,1.89136 -4.946382,1.89136 -1.819013,0 -2.428796,-1.10588 -2.428796,-2.55282 0,-0.15503 0,-0.32039 0.02067,-0.49609 5.30201,-0.11369 7.999524,-0.98186 7.999524,-3.56568 0,-2.03606 -1.705325,-3.28663 -4.082444,-3.28663 -3.772386,0 -6.521577,3.36931 -6.521577,7.3174 0,2.94556 1.819014,4.69222 4.826588,4.69222 z m -1.922366,-6.87297 c 0.454753,-1.5503 1.457277,-3.02825 3.348638,-3.02825 1.105877,0 1.808678,0.48576 1.808678,1.27124 0,1.26091 -1.074872,1.68466 -5.157316,1.75701 z"
           id="use69"
           style="font-style:italic;font-weight:600;font-size:21.1667px;font-family:Inter;-inkscape-font-specification:'Inter, Semi-Bold Italic';fill:url(#linearGradient94);fill-opacity:1;stroke-width:0.264583"
           aria-label="e" /><path
           d="m 55.317814,118.6946 c 2.573491,0 4.609545,-1.2609 5.405364,-3.21428 l -0.185994,-1.74993 c -0.454753,0.95085 -3.751757,2.85581 -5.033334,2.85581 -1.819014,0 -2.428796,-1.10588 -2.428796,-2.55282 0,-0.15503 0,-0.32039 0.02067,-0.49609 5.302011,-0.11369 7.999525,-0.98186 7.999525,-3.56568 0,-2.03606 -1.705325,-3.28663 -4.082445,-3.28663 -3.772386,0 -6.521576,3.36931 -6.521576,7.3174 0,2.94556 1.819013,4.69222 4.826586,4.69222 z m -1.922366,-6.87297 c 0.454753,-1.5503 1.457278,-3.02825 3.348638,-3.02825 1.105878,0 1.808678,0.48576 1.808678,1.27124 0,1.26091 -1.074871,1.68466 -5.157316,1.75701 z"
           id="use70"
           style="font-style:italic;font-weight:600;font-size:21.1667px;font-family:Inter;-inkscape-font-specification:'Inter, Semi-Bold Italic';fill:url(#linearGradient95);fill-opacity:1;stroke-width:0.264583"
           aria-label="e" /><path
           d="m 64.567952,118.59125 c 1.922366,0 2.935226,-1.09555 3.503667,-2.03606 h 0.165365 l -0.494223,3.99359 2.432736,-0.93522 2.625091,-18.83154 -2.474751,0.91637 -0.879622,7.12599 h -0.113689 c -0.279053,-0.83716 -0.971518,-2.1394 -3.100591,-2.1394 -3.617356,0 -5.694751,3.71037 -5.694751,7.30706 0,2.92489 1.622642,4.59921 4.030768,4.59921 z m 0.795818,-2.21176 c -1.415937,0 -2.087731,-1.02319 -2.087731,-2.54248 0,-2.26344 1.240236,-4.94028 3.627691,-4.94028 1.405601,0 1.844988,0.92105 1.844988,2.46101 0,2.27376 -0.997493,5.02175 -3.384948,5.02175 z"
           id="use71"
           style="font-style:italic;font-weight:600;font-size:21.1667px;font-family:Inter;-inkscape-font-specification:'Inter, Semi-Bold Italic';fill:url(#linearGradient96);fill-opacity:1;stroke-width:0.264583"
           aria-label="d" /><path
           d="m 68.848648,121.36357 c 0.341065,0.15503 2.478498,0.99704 3.438505,1.18332 2.049503,0.39769 3.523833,-0.94303 4.41251,-2.77164 l 4.700653,-12.08229 -2.771752,-0.0124 -1.361309,4.74459 c -0.259932,1.06019 -0.567409,2.43418 -0.887322,3.45554 -0.240509,-1.00436 -0.534283,-1.97425 -0.79855,-2.93968 l -1.951609,-5.25437 -2.991007,0.002 4.035841,10.49695 -0.210011,0.89558 c -0.472951,1.63055 -0.82833,1.46776 -1.916885,1.33807 l -1.035707,-0.24927 z"
           id="use72"
           style="font-style:italic;font-weight:600;font-size:21.1667px;font-family:Inter;-inkscape-font-specification:'Inter, Semi-Bold Italic';fill:url(#linearGradient97);fill-opacity:1;stroke-width:0.264583"
           aria-label="y" /><g
           id="use73"
           transform="translate(0.0851844,89.801283)"
           style="fill:url(#linearGradient110);fill-opacity:1"><text
             xml:space="preserve"
             style="font-style:normal;font-variant:normal;font-weight:600;font-stretch:normal;font-size:21.1667px;font-family:Inter;-inkscape-font-specification:'Inter, Semi-Bold';font-variant-ligatures:normal;font-variant-caps:normal;font-variant-numeric:normal;font-variant-east-asian:normal;fill:url(#linearGradient98);stroke-width:0.264583"
             x="78.978546"
             y="28.563917"
             id="text82"><tspan
               id="tspan82"
               style="font-style:normal;font-variant:normal;font-weight:600;font-stretch:normal;font-size:21.1667px;font-family:Inter;-inkscape-font-specification:'Inter, Semi-Bold';font-variant-ligatures:normal;font-variant-caps:normal;font-variant-numeric:normal;font-variant-east-asian:normal;fill:url(#linearGradient98);stroke-width:0.264583"
               x="78.978546"
               y="28.563917">M</tspan></text><text
             xml:space="preserve"
             style="font-style:normal;font-variant:normal;font-weight:600;font-stretch:normal;font-size:21.1667px;font-family:Inter;-inkscape-font-specification:'Inter, Semi-Bold';font-variant-ligatures:normal;font-variant-caps:normal;font-variant-numeric:normal;font-variant-east-asian:normal;fill:url(#linearGradient99);stroke-width:0.264583"
             x="96.438202"
             y="28.409132"
             id="text83"><tspan
               id="tspan83"
               style="fill:url(#linearGradient99);stroke-width:0.264583"
               x="96.438202"
               y="28.409132">a</tspan></text><text
             xml:space="preserve"
             style="font-style:normal;font-variant:normal;font-weight:600;font-stretch:normal;font-size:21.1667px;font-family:Inter;-inkscape-font-specification:'Inter, Semi-Bold';font-variant-ligatures:normal;font-variant-caps:normal;font-variant-numeric:normal;font-variant-east-asian:normal;fill:url(#linearGradient100);stroke-width:0.264583"
             x="117.66324"
             y="28.409132"
             id="text84"><tspan
               id="tspan84"
               style="fill:url(#linearGradient100);stroke-width:0.264583"
               x="117.66324"
               y="28.409132">e</tspan></text><g
             id="g89"
             transform="translate(-3.2629054,-0.55551125)"
             style="fill:url(#linearGradient109)"><text
               xml:space="preserve"
               style="font-style:normal;font-variant:normal;font-weight:600;font-stretch:normal;font-size:21.1667px;font-family:Inter;-inkscape-font-specification:'Inter, Semi-Bold';font-variant-ligatures:normal;font-variant-caps:normal;font-variant-numeric:normal;font-variant-east-asian:normal;fill:url(#linearGradient101);stroke-width:0.264583"
               x="109.78136"
               y="28.8057"
               id="text85"><tspan
                 id="tspan85"
                 style="fill:url(#linearGradient101);stroke-width:0.264583"
                 x="109.78136"
                 y="28.8057">d</tspan></text><g
               id="g88"
               transform="translate(-0.4228502,-1.3664313)"
               style="fill:url(#linearGradient107)"><path
                 id="path85"
                 style="fill:url(#linearGradient102);stroke-width:0.0979142"
                 d="m 121.57394,11.780749 -1.74503,1.745029 -1.80844,1.733164 -0.85875,-0.910291 c 3.04836,-3.043139 4.87151,-4.8644601 3.49006,-3.490055 z" /><path
                 id="path86"
                 style="fill:url(#linearGradient103);stroke-width:0.0979142"
                 d="m 119.82891,13.525778 -0.51752,0.860984 -3.8913,2.629072 -0.003,-0.922155 c 3.04836,-3.043138 4.87151,-4.864459 3.49006,-3.490054 z" /><path
                 id="path87"
                 style="fill:url(#linearGradient104);stroke-width:0.0979142"
                 d="m 123.25609,15.240627 -1.77681,-1.714853 -1.74503,-1.745016 0.92215,-0.922164 3.49006,3.490062 z" /><path
                 id="path88"
                 style="fill:url(#linearGradient105);stroke-width:0.0979142"
                 d="m 125.8742,17.015834 -3.87741,-2.629072 -0.51751,-0.86097 0.92215,-0.922164 3.49006,3.490062 z" /><rect
                 style="fill:url(#linearGradient106);stroke-width:0.264583"
                 id="rect88"
                 width="1.9326794"
                 height="2.1193678"
                 x="119.64126"
                 y="12.642618" /></g><rect
               style="fill:url(#linearGradient108);stroke-width:0.283116"
               id="rect89"
               width="2.6853952"
               height="1.8473243"
               x="118.88854"
               y="12.096668" /></g></g></g></g></g></svg>
