<?xml version="1.0" encoding="UTF-8" standalone="no"?>
<!-- Created with Inkscape (http://www.inkscape.org/) -->

<svg
   width="13.086627mm"
   height="19.749058mm"
   viewBox="0 0 13.086627 19.749058"
   version="1.1"
   id="svg1"
   xml:space="preserve"
   sodipodi:docname="speedymade-icon.svg"
   inkscape:version="1.3.2 (091e20e, 2023-11-25)"
   xmlns:inkscape="http://www.inkscape.org/namespaces/inkscape"
   xmlns:sodipodi="http://sodipodi.sourceforge.net/DTD/sodipodi-0.dtd"
   xmlns:xlink="http://www.w3.org/1999/xlink"
   xmlns="http://www.w3.org/2000/svg"
   xmlns:svg="http://www.w3.org/2000/svg"><sodipodi:namedview
     id="namedview1"
     pagecolor="#ffffff"
     bordercolor="#000000"
     borderopacity="0.25"
     inkscape:showpageshadow="2"
     inkscape:pageopacity="0.0"
     inkscape:pagecheckerboard="0"
     inkscape:deskcolor="#d1d1d1"
     inkscape:document-units="mm"
     inkscape:zoom="7.2407734"
     inkscape:cx="25.687864"
     inkscape:cy="37.841262"
     inkscape:window-width="1512"
     inkscape:window-height="945"
     inkscape:window-x="868"
     inkscape:window-y="937"
     inkscape:window-maximized="0"
     inkscape:current-layer="svg1" /><defs
     id="defs1"><linearGradient
       id="linearGradient111"><stop
         style="stop-color:#205896;stop-opacity:1;"
         offset="0.09071274"
         id="stop110" /><stop
         style="stop-color:#37849c;stop-opacity:1;"
         offset="0.46436286"
         id="stop112" /><stop
         style="stop-color:#5bc6a5;stop-opacity:1;"
         offset="1"
         id="stop111" /></linearGradient><linearGradient
       id="linearGradient90"><stop
         style="stop-color:#205896;stop-opacity:1;"
         offset="0"
         id="stop90" /><stop
         style="stop-color:#5bc6a5;stop-opacity:1;"
         offset="1"
         id="stop91" /></linearGradient><linearGradient
       xlink:href="#linearGradient111"
       id="linearGradient91"
       x1="18.573824"
       y1="110.44492"
       x2="129.38597"
       y2="110.44492"
       gradientUnits="userSpaceOnUse" /><linearGradient
       xlink:href="#linearGradient90"
       id="linearGradient92"
       gradientUnits="userSpaceOnUse"
       x1="18.573824"
       y1="110.44492"
       x2="129.38597"
       y2="110.44492" /><linearGradient
       xlink:href="#linearGradient90"
       id="linearGradient93"
       gradientUnits="userSpaceOnUse"
       x1="18.573824"
       y1="110.44492"
       x2="129.38597"
       y2="110.44492" /><linearGradient
       xlink:href="#linearGradient90"
       id="linearGradient94"
       gradientUnits="userSpaceOnUse"
       x1="18.573824"
       y1="110.44492"
       x2="129.38597"
       y2="110.44492" /><linearGradient
       xlink:href="#linearGradient90"
       id="linearGradient95"
       gradientUnits="userSpaceOnUse"
       x1="18.573824"
       y1="110.44492"
       x2="129.38597"
       y2="110.44492" /><linearGradient
       xlink:href="#linearGradient90"
       id="linearGradient96"
       gradientUnits="userSpaceOnUse"
       x1="18.573824"
       y1="110.44492"
       x2="129.38597"
       y2="110.44492" /><linearGradient
       xlink:href="#linearGradient90"
       id="linearGradient97"
       gradientUnits="userSpaceOnUse"
       x1="18.573824"
       y1="110.44492"
       x2="129.38597"
       y2="110.44492" /><linearGradient
       xlink:href="#linearGradient90"
       id="linearGradient98"
       gradientUnits="userSpaceOnUse"
       x1="18.573824"
       y1="110.44492"
       x2="129.38597"
       y2="110.44492" /><linearGradient
       xlink:href="#linearGradient90"
       id="linearGradient99"
       gradientUnits="userSpaceOnUse"
       x1="18.573824"
       y1="110.44492"
       x2="129.38597"
       y2="110.44492" /><linearGradient
       xlink:href="#linearGradient90"
       id="linearGradient100"
       gradientUnits="userSpaceOnUse"
       x1="18.573824"
       y1="110.44492"
       x2="129.38597"
       y2="110.44492" /><linearGradient
       xlink:href="#linearGradient90"
       id="linearGradient101"
       gradientUnits="userSpaceOnUse"
       x1="18.573824"
       y1="110.44492"
       x2="129.38597"
       y2="110.44492" /><linearGradient
       xlink:href="#linearGradient90"
       id="linearGradient102"
       gradientUnits="userSpaceOnUse"
       x1="18.573824"
       y1="110.44492"
       x2="129.38597"
       y2="110.44492" /><linearGradient
       xlink:href="#linearGradient90"
       id="linearGradient103"
       gradientUnits="userSpaceOnUse"
       x1="18.573824"
       y1="110.44492"
       x2="129.38597"
       y2="110.44492" /><linearGradient
       xlink:href="#linearGradient90"
       id="linearGradient104"
       gradientUnits="userSpaceOnUse"
       x1="18.573824"
       y1="110.44492"
       x2="129.38597"
       y2="110.44492" /><linearGradient
       xlink:href="#linearGradient90"
       id="linearGradient105"
       gradientUnits="userSpaceOnUse"
       x1="18.573824"
       y1="110.44492"
       x2="129.38597"
       y2="110.44492" /><linearGradient
       xlink:href="#linearGradient90"
       id="linearGradient106"
       gradientUnits="userSpaceOnUse"
       x1="18.573824"
       y1="110.44492"
       x2="129.38597"
       y2="110.44492" /><linearGradient
       xlink:href="#linearGradient90"
       id="linearGradient107"
       gradientUnits="userSpaceOnUse"
       x1="18.573824"
       y1="110.44492"
       x2="129.38597"
       y2="110.44492" /><linearGradient
       xlink:href="#linearGradient90"
       id="linearGradient108"
       gradientUnits="userSpaceOnUse"
       x1="18.573824"
       y1="110.44492"
       x2="129.38597"
       y2="110.44492" /><linearGradient
       xlink:href="#linearGradient90"
       id="linearGradient109"
       gradientUnits="userSpaceOnUse"
       x1="18.573824"
       y1="110.44492"
       x2="129.38597"
       y2="110.44492" /><linearGradient
       xlink:href="#linearGradient90"
       id="linearGradient110"
       gradientUnits="userSpaceOnUse"
       x1="18.573824"
       y1="110.44492"
       x2="129.38597"
       y2="110.44492" /></defs><rect
     style="fill:#f9f9f9;stroke-width:0.264583"
     id="rect1"
     width="25"
     height="25"
     x="-5.9566865"
     y="-2.6254711"
     inkscape:label="rect1"
     rx="5" /><g
     id="g65"
     transform="translate(-37.803757,-46.735142)"
     inkscape:label="g65"
     inkscape:export-filename="speedymade-icon.png"
     inkscape:export-xdpi="200"
     inkscape:export-ydpi="200"><path
       d="m 43.231568,66.484198 c 3.679368,0 5.932464,-1.641909 6.376882,-4.045151 0.444418,-2.394068 -1.622643,-3.439753 -3.793056,-3.925904 l -1.374595,-0.330217 c -1.209231,-0.27518 -2.490808,-0.742987 -2.273767,-1.889571 0.206706,-1.027339 1.38493,-1.788672 3.131597,-1.788672 1.663983,0 3.71577,1.279139 3.633087,2.444069 l 1.958668,-1.22354 c -0.531186,-2.350371 -2.108758,-3.389306 -5.354043,-3.389306 -3.23495,0 -5.756764,1.710143 -6.190847,4.122557 -0.361735,1.990471 1.054201,3.100364 3.41065,3.659898 l 1.674319,0.403597 c 1.622643,0.385253 2.635502,0.834714 2.428796,1.898744 -0.217041,1.183275 -1.643313,1.972126 -3.462326,1.972126 -1.736331,0 -2.976567,-0.697124 -2.831873,-2.137234 l -2.718185,-1.114477 c -0.382406,2.705939 1.808678,5.343081 5.384693,5.343081 z"
       id="use55"
       style="font-style:italic;font-weight:600;font-size:21.1667px;font-family:Inter;-inkscape-font-specification:'Inter, Semi-Bold Italic';stroke-width:0.249258"
       aria-label="S"
       inkscape:label="use55" /><g
       id="g64"
       transform="translate(-71.471655,37.827294)"><g
         id="g62"
         transform="translate(-3.8225339,-1.4855316)"><path
           id="path59"
           style="stroke-width:0.0979142"
           d="m 121.57394,11.780749 -1.74503,1.745029 -1.80844,1.733164 -0.85875,-0.910291 c 3.04836,-3.043139 4.87151,-4.8644601 3.49006,-3.490055 z" /><path
           id="path60"
           style="stroke-width:0.0979142"
           d="m 119.82891,13.525778 -0.51752,0.860984 -3.8913,2.629072 -0.003,-0.922155 c 3.04836,-3.043138 4.87151,-4.864459 3.49006,-3.490054 z" /><path
           id="path61"
           style="stroke-width:0.0979142"
           d="m 123.25609,15.240627 -1.77681,-1.714853 -1.74503,-1.745016 0.92215,-0.922164 3.49006,3.490062 z" /><path
           id="path62"
           style="stroke-width:0.0979142"
           d="m 125.8742,17.015834 -3.87741,-2.629072 -0.51751,-0.86097 0.92215,-0.922164 3.49006,3.490062 z" /><path
           id="rect62"
           style="stroke-width:0.264583"
           d="m 119.64126,12.642618 h 1.93268 v 2.119368 h -1.93268 z" /></g><path
         id="rect63"
         style="stroke-width:0.283116"
         d="m 115.48886,11.977568 h 2.6854 v 1.847324 h -2.6854 z" /></g><path
       id="rect64"
       style="stroke-width:0.381757"
       d="M 44.017204,49.807182 H 46.7026 v 3.550411 h -2.685396 z"
       inkscape:label="rect64" /></g></svg>
