<?xml version="1.0" encoding="UTF-8" standalone="no"?>
<!-- Created with Inkscape (http://www.inkscape.org/) -->

<svg
   width="116.35833mm"
   height="19.089914mm"
   viewBox="0 0 116.35833 19.089914"
   version="1.1"
   id="svg1"
   xmlns="http://www.w3.org/2000/svg"
   xmlns:svg="http://www.w3.org/2000/svg">
  <defs
     id="defs1" />
  <g
     id="layer1"
     transform="translate(-59.90069,-23.999744)">
    <g
       id="g58"
       transform="translate(14.662253,-65.48322)"
       style="fill:#000000;fill-opacity:1">
      <path
         d="m 73.415501,101.29739 c 0,-1.51309 0.657325,-2.25723 1.823145,-2.25723 1.16582,0 1.823144,0.74414 1.823144,2.05879 v 7.14375 h 4.960938 v -8.259962 c 0,-3.150195 -1.500684,-5.13457 -4.415235,-5.13457 -2.058789,0 -3.385839,0.979785 -4.254003,2.480468 V 95.145824 H 68.454564 V 108.2427 h 4.960937 z"
         id="text5"
         style="font-weight:900;font-size:25.4px;font-family:'Inter Display';-inkscape-font-specification:'Inter Display, Heavy';stroke-width:0.264583"
         aria-label="n" />
      <g
         id="g56"
         transform="translate(-0.13590455,0.18135047)"
         style="fill:#000000;fill-opacity:1">
        <path
           d="m 111.90739,108.09387 h 4.96094 v -6.27558 c 0,-1.74873 0.97978,-2.852543 2.53008,-2.852543 h 1.81074 v -3.96875 h -1.24024 c -1.79834,0 -2.75332,0.620117 -3.2246,2.38125 h -0.0248 v -2.38125 h -4.81211 z"
           id="text12"
           style="font-weight:900;font-size:25.4px;font-family:'Inter Display';-inkscape-font-specification:'Inter Display, Heavy';stroke-width:0.264583"
           aria-label="r" />
        <path
           d="m 129.54858,94.996997 h -2.70371 v -3.571875 h -4.96094 v 3.571875 h -2.20761 v 3.770313 h 2.20761 v 5.40742 c 0,2.72852 1.50069,3.91914 4.93614,3.91914 h 2.72851 v -3.77031 h -1.56269 c -0.90538,0 -1.14102,-0.23564 -1.14102,-1.01699 v -4.53926 h 2.70371 z"
           id="text13"
           style="font-weight:900;font-size:25.4px;font-family:'Inter Display';-inkscape-font-specification:'Inter Display, Heavy';stroke-width:0.264583"
           aria-label="t" />
        <path
           id="rect14"
           style="stroke-width:1.97397"
           d="m 120.79153,94.996635 h 8.75705 v 3.965612 h -8.75705 z" />
      </g>
      <path
         d="m 137.12693,108.57288 c 4.26641,0 7.14375,-2.6541 7.14375,-6.84609 0,-4.179594 -2.87734,-6.846098 -7.14375,-6.846098 -4.254,0 -7.14375,2.666504 -7.14375,6.846098 0,4.20439 2.88975,6.84609 7.14375,6.84609 z m 0,-3.86953 c -1.17822,0 -2.1332,-1.00459 -2.1332,-2.97656 0,-1.971977 0.95498,-2.976567 2.1332,-2.976567 1.17822,0 2.1332,1.00459 2.1332,2.976567 0,1.97197 -0.95498,2.97656 -2.1332,2.97656 z"
         id="text14"
         style="font-weight:900;font-size:25.4px;font-family:'Inter Display';-inkscape-font-specification:'Inter Display, Heavy';stroke-width:0.264583"
         aria-label="o" />
      <path
         d="m 151.10852,108.57287 c 3.91914,0 6.49883,-1.93477 6.49883,-4.71289 0,-1.95957 -1.28984,-3.08818 -4.04316,-3.54707 l -2.80293,-0.47129 c -0.78135,-0.136426 -1.21543,-0.434082 -1.21543,-0.843359 0,-0.483692 0.5333,-0.84336 1.48828,-0.84336 0.95498,0 1.68672,0.58291 1.71152,1.339453 h 4.51446 c -0.0744,-2.840136 -2.46807,-4.613671 -6.42442,-4.613671 -3.91914,0 -6.22597,1.686718 -6.22597,4.390429 0,2.120798 1.41386,3.472658 4.04316,3.894338 l 2.45566,0.39687 c 0.99219,0.16123 1.46348,0.44649 1.46348,0.86817 0,0.50849 -0.55811,0.84336 -1.53789,0.84336 -1.0666,0 -1.72393,-0.5333 -1.83555,-1.31465 h -4.88652 c 0.26045,2.76572 2.90215,4.61367 6.79648,4.61367 z"
         id="text15"
         style="font-weight:900;font-size:25.4px;font-family:'Inter Display';-inkscape-font-specification:'Inter Display, Heavy';stroke-width:0.264583"
         aria-label="s" />
      <g
         id="g54"
         transform="matrix(1,0,0,0.99746618,0,0.22673383)"
         style="fill:#000000;fill-opacity:1">
        <path
           id="rect6"
           style="stroke-width:0.273233"
           d="m 62.884483,89.482964 h 4.511708 v 18.807386 h -4.511708 z" />
        <path
           id="rect37"
           style="stroke-width:0.401198"
           d="m 53.508862,98.886658 h 11.420232 v 3.523172 H 53.508862 Z" />
        <path
           id="rect48"
           style="stroke-width:0.264583"
           d="m 46.161842,105.75539 h 10e-7 v 1.98974 h -10e-7 z" />
        <path
           id="path53"
           style="stroke-width:0.264583"
           transform="matrix(1.0633502,0,0.45396251,1.0544894,-45.261603,-4.8758725)"
           d="m 62.461994,89.482963 h 4.934194 L 44.226482,107.3185 h -4.934193 z" />
      </g>
      <g
         id="g55"
         transform="translate(1.0651042,-0.01512425)"
         style="fill:#000000;fill-opacity:1">
        <path
           d="m 87.142297,108.29035 c 1.736328,0 3.063379,-0.79375 3.658692,-2.33164 h 0.0124 v 2.03399 h 4.911328 V 89.513207 H 90.76378 v 7.09414 h -0.0124 c -0.830957,-1.37666 -1.95957,-2.009179 -3.658691,-2.009179 -3.286621,0 -5.605859,2.815332 -5.605859,6.821292 0,4.16718 2.220019,6.87089 5.655467,6.87089 z m 1.475879,-3.89433 c -1.351855,0 -2.120801,-1.16582 -2.120801,-2.97656 0,-1.798343 0.768946,-2.951761 2.120801,-2.951761 1.351856,0 2.319238,1.153418 2.319238,2.951761 0,1.81074 -0.967382,2.97656 -2.319238,2.97656 z"
           id="text9"
           style="font-weight:900;font-size:25.4px;font-family:'Inter Display';-inkscape-font-specification:'Inter Display, Heavy';stroke-width:0.264583"
           aria-label="d" />
        <path
           id="rect55"
           style="stroke-width:0.264583"
           d="m 90.813164,107.40314 h 4.911554 v 0.88722 h -4.911554 z" />
      </g>
      <g
         id="g57"
         transform="translate(0.85521376)"
         style="fill:#000000;fill-opacity:1">
        <path
           d="m 101.32944,108.27523 c 1.67432,0 2.90215,-0.50849 3.77032,-2.07119 h 0.0496 v 1.83555 h 4.83691 v -8.756056 c 0,-2.976562 -2.15801,-4.638476 -6.20117,-4.638476 -4.01836,0 -6.163966,1.661914 -6.374806,4.638476 h 4.539256 c 0.0868,-0.768945 0.65733,-1.190625 1.63711,-1.190625 0.90537,0 1.48828,0.372071 1.48828,0.942579 v 0.04961 c 0,0.719336 -0.86816,0.992182 -3.175,1.141012 -2.827732,0.18604 -5.035349,1.26504 -5.035349,4.19199 0,2.6045 1.835547,3.85713 4.464839,3.85713 z m 1.61231,-3.08818 c -0.84336,0 -1.43867,-0.39688 -1.43867,-1.0666 0,-0.66973 0.62011,-1.11621 1.63711,-1.28985 0.91777,-0.16123 1.48828,-0.29765 1.98437,-0.47128 v 1.04179 c 0,1.16582 -1.11621,1.78594 -2.18281,1.78594 z"
           id="text11"
           style="font-weight:900;font-size:25.4px;font-family:'Inter Display';-inkscape-font-specification:'Inter Display, Heavy';stroke-width:0.264583"
           aria-label="a" />
        <path
           id="rect56"
           style="stroke-width:0.464876"
           d="m 105.14915,107.54337 h 4.83713 v 0.73185 h -4.83713 z" />
      </g>
      <path
         id="rect57"
         style="stroke-width:0.264583"
         d="m 91.878265,89.498077 h 4.911556 v 1.626118 h -4.911556 z" />
    </g>
    <text
       xml:space="preserve"
       style="font-style:normal;font-variant:normal;font-weight:800;font-stretch:normal;font-size:7.05556px;font-family:'Inter Display';-inkscape-font-specification:'Inter Display, Ultra-Bold';font-variant-ligatures:normal;font-variant-caps:normal;font-variant-numeric:normal;font-variant-east-asian:normal;fill:#000000;stroke-width:0.264583"
       x="172.056"
       y="32.684086"
       id="text59"><tspan
         id="tspan59"
         style="font-style:normal;font-variant:normal;font-weight:800;font-stretch:normal;font-size:7.05556px;font-family:'Inter Display';-inkscape-font-specification:'Inter Display, Ultra-Bold';font-variant-ligatures:normal;font-variant-caps:normal;font-variant-numeric:normal;font-variant-east-asian:normal;stroke-width:0.264583"
         x="172.056"
         y="32.684086">™</tspan></text>
    <rect
       style="fill:#000000;stroke-width:0.264583"
       id="rect60"
       width="0.17787878"
       height="3.5762787e-07"
       x="136.23241"
       y="26.123253" />
  </g>
</svg>
