<?xml version="1.0" encoding="UTF-8" standalone="no"?>
<!-- Created with Inkscape (http://www.inkscape.org/) -->

<svg
   width="112.3125mm"
   height="19.110527mm"
   viewBox="0 0 112.3125 19.110527"
   version="1.1"
   id="svg1"
   xml:space="preserve"
   xmlns:xlink="http://www.w3.org/1999/xlink"
   xmlns="http://www.w3.org/2000/svg"
   xmlns:svg="http://www.w3.org/2000/svg"><defs
     id="defs1"><linearGradient
       id="linearGradient7"><stop
         style="stop-color:#5bc6a5;stop-opacity:1;"
         offset="0"
         id="stop1" /><stop
         style="stop-color:#377eb1;stop-opacity:1;"
         offset="0.75432307"
         id="stop2" /></linearGradient><linearGradient
       xlink:href="#linearGradient7"
       id="linearGradient17"
       x1="48.876461"
       y1="151.71983"
       x2="161.18896"
       y2="151.71983"
       gradientUnits="userSpaceOnUse"
       gradientTransform="translate(-0.03271554,-53.456741)" /></defs><g
     id="layer1"
     transform="translate(-48.843743,-88.70783)"><path
       style="opacity:1;fill:url(#linearGradient17);fill-opacity:1;stroke-width:13.2;stroke-dasharray:none"
       d="m 139.54304,107.74837 c -2.0308,-0.25992 -3.75676,-1.21306 -4.7714,-2.63495 -1.68518,-2.36157 -1.62814,-6.175591 0.12646,-8.455831 1.38162,-1.79552 3.89626,-2.74986 6.58272,-2.49825 1.0976,0.1028 1.90628,0.3186 2.76924,0.73895 1.40496,0.68438 2.38401,1.69387 2.9803,3.07294 0.77379,1.78958 0.78188,4.123961 0.0206,5.952551 -0.57246,1.37512 -1.75568,2.57928 -3.1497,3.20543 -1.2726,0.57161 -3.04679,0.81261 -4.55825,0.61916 z m 1.74498,-3.90739 c 0.40571,-0.13103 0.86683,-0.53189 1.09342,-0.95053 0.31115,-0.57489 0.39735,-0.99295 0.39735,-1.92712 0,-0.89464 -0.0818,-1.322601 -0.35508,-1.858331 -0.59765,-1.17148 -2.04274,-1.47687 -2.98399,-0.63061 -0.58521,0.52615 -0.87873,1.35753 -0.87873,2.488941 0,1.14558 0.27895,1.93893 0.87248,2.48138 0.52667,0.48135 1.1673,0.61823 1.85455,0.39627 z m 12.07158,3.90397 c -1.23767,-0.13752 -2.54519,-0.59218 -3.44186,-1.19682 -1.08169,-0.72942 -1.84533,-1.88869 -1.99694,-3.03155 l -0.0441,-0.33228 2.43079,0.0166 2.43078,0.0166 0.0859,0.24823 c 0.13431,0.38801 0.37057,0.64722 0.76767,0.84221 0.3314,0.16274 0.42809,0.17947 1.0324,0.17861 0.54792,-7.9e-4 0.7202,-0.0255 0.96668,-0.13856 0.56316,-0.25837 0.70057,-0.76392 0.30063,-1.10599 -0.29181,-0.24957 -0.68909,-0.35164 -2.58148,-0.66326 -1.86214,-0.30663 -2.3454,-0.42919 -3.03558,-0.76986 -1.41021,-0.69607 -2.08431,-1.75889 -2.08694,-3.290381 -0.003,-1.62837 0.77411,-2.84591 2.30919,-3.6189 1.63254,-0.82207 4.30296,-1.02055 6.44666,-0.47915 2.00844,0.50724 3.29789,1.64817 3.71767,3.28946 0.0675,0.26381 0.12267,0.60403 0.12267,0.75606 v 0.2764 l -2.23174,-0.0167 -2.23174,-0.0167 -0.0854,-0.29299 c -0.11059,-0.37932 -0.51774,-0.76144 -0.97217,-0.91237 -0.46513,-0.15449 -1.2594,-0.1125 -1.67467,0.0885 -0.51607,0.24982 -0.63574,0.6962 -0.2814,1.0496 0.28538,0.28462 0.59225,0.36896 2.5478,0.7002 1.92018,0.32526 2.47677,0.45411 3.13618,0.726031 1.71303,0.70639 2.42833,2.0321 2.07967,3.85435 -0.51133,2.67252 -3.7245,4.26542 -7.71071,3.82252 z M 48.84387,107.44423 c 0.01164,-0.0328 3.721629,-4.26147 8.244416,-9.397081 l 8.22325,-9.33747 2.809875,-9.3e-4 2.809875,-9.2e-4 v 9.398 9.397991 h -2.25425 -2.25425 v -2.95275 -2.95274 h -3.609794 -3.609794 l -2.597331,2.95193 -2.59733,2.95194 -2.592917,8.1e-4 c -1.588532,5e-4 -2.584718,-0.0223 -2.57175,-0.0588 z M 66.422786,95.788079 c 0,-1.27477 -0.013,-2.31775 -0.02889,-2.31775 -0.01589,0 -0.86344,0.95011 -1.883447,2.11137 -1.020006,1.16126 -1.941299,2.20424 -2.047317,2.31775 l -0.19276,0.20638 h 2.076207 2.076206 z m 5.588,5.143501 v -6.572251 h 2.44475 2.44475 v 1.08662 1.08663 l 0.229891,-0.3405 c 0.734728,-1.08823 1.817327,-1.80709 3.048884,-2.0245 0.7051,-0.12446 1.901271,-0.053 2.531475,0.15126 1.184567,0.38392 2.050474,1.26659 2.481043,2.52908 0.334187,0.97988 0.344707,1.1658 0.344707,6.092221 v 4.56368 H 83.06163 80.586974 l -0.01772,-3.95287 -0.01772,-3.952871 -0.14628,-0.3175 c -0.176715,-0.38357 -0.403223,-0.63225 -0.74272,-0.81545 -0.212276,-0.11454 -0.359129,-0.13705 -0.89398,-0.13705 -0.60181,0 -0.658619,0.0115 -0.9525,0.19278 -0.364935,0.22511 -0.682123,0.70285 -0.784933,1.18224 -0.04314,0.20114 -0.06734,1.659301 -0.06734,4.057351 v 3.74337 h -2.4765 -2.4765 z m 18.605499,6.47686 c -2.235061,-0.45191 -3.768373,-2.12183 -4.317808,-4.70249 -0.173568,-0.81523 -0.237447,-2.38475 -0.131362,-3.227561 0.216728,-1.72183 0.843082,-3.10465 1.874695,-4.1388 1.042911,-1.04547 2.173968,-1.50008 3.721734,-1.49586 1.503231,0.004 2.50975,0.49157 3.340724,1.61796 l 0.274517,0.37211 v -3.56299 -3.56298 h 2.4765 2.476495 v 9.398 9.397991 H 97.894242 95.4567 l -0.03074,-0.20637 c -0.01691,-0.11351 -0.01804,-0.635 -0.0025,-1.15888 l 0.02823,-0.9525 -0.263922,0.46594 c -0.701782,1.23894 -1.882149,1.86064 -3.504509,1.84585 -0.359818,-0.003 -0.839952,-0.0435 -1.066965,-0.0894 z m 3.456652,-3.96026 c 0.633718,-0.28032 1.17319,-1.00619 1.37484,-1.84985 0.107613,-0.45024 0.107181,-1.45754 -8.17e-4,-1.905001 -0.33379,-1.38298 -1.386611,-2.17857 -2.595674,-1.9615 -0.723997,0.12999 -1.250186,0.64193 -1.549252,1.50729 -0.127882,0.37003 -0.145999,0.54459 -0.145999,1.406711 0,1.10555 0.07035,1.43999 0.426301,2.02679 0.401303,0.66155 1.018885,0.98518 1.778307,0.93188 0.234635,-0.0165 0.555167,-0.0868 0.712294,-0.15632 z m 10.404583,3.96481 c -1.34051,-0.25393 -2.32079,-0.92143 -2.80906,-1.91277 -0.52268,-1.0612 -0.515,-2.70272 0.0175,-3.75293 0.65025,-1.28232 2.11108,-2.043901 4.30174,-2.242651 2.31637,-0.21016 2.95698,-0.35389 3.29546,-0.7394 0.35267,-0.40167 0.20539,-0.95898 -0.3288,-1.24423 -0.23646,-0.12626 -0.36447,-0.14543 -0.97087,-0.14543 -0.60027,0 -0.73561,0.0198 -0.96237,0.1411 -0.31725,0.16964 -0.50454,0.39458 -0.60346,0.72474 l -0.0735,0.24541 h -2.27436 -2.27437 l 0.0351,-0.20638 c 0.17478,-1.02692 0.35198,-1.54032 0.73429,-2.12741 0.86388,-1.32662 2.47802,-2.08157 4.77262,-2.2322 3.66703,-0.24072 6.10174,0.87494 6.84641,3.13724 0.14629,0.44443 0.14632,0.4452 0.17973,5.302251 0.0184,2.67176 0.0229,4.92204 0.0101,5.00062 l -0.0233,0.14287 h -2.40402 -2.40402 l -0.0174,-1.02656 -0.0174,-1.02657 -0.22905,0.34394 c -0.49757,0.74715 -1.12536,1.23424 -1.92995,1.49741 -0.43749,0.1431 -0.64021,0.16905 -1.4605,0.18694 -0.62396,0.0136 -1.11048,-0.009 -1.41052,-0.066 z m 3.42117,-3.04906 c 0.5074,-0.10754 0.73905,-0.22073 1.07749,-0.52649 0.42484,-0.38381 0.51824,-0.63709 0.55057,-1.49299 0.0155,-0.41037 0.014,-0.74612 -0.003,-0.74612 -0.0174,0 -0.15067,0.042 -0.29621,0.0934 -0.14555,0.0514 -0.69442,0.17964 -1.21973,0.28509 -1.03111,0.207 -1.44591,0.35703 -1.72816,0.62507 -0.2546,0.24179 -0.3595,0.47166 -0.35922,0.7872 4.3e-4,0.49385 0.37617,0.88321 0.96396,0.99892 0.40086,0.0789 0.54515,0.0755 1.0147,-0.024 z m 7.4191,-3.4006 v -6.540501 h 2.413 2.413 l 0.002,1.15887 0.002,1.15888 0.17909,-0.45383 c 0.23461,-0.59452 0.39078,-0.83925 0.74243,-1.16338 0.60009,-0.55314 1.21342,-0.6979 2.96348,-0.69944 l 1.25413,-0.001 v -1.778 -1.778 h 2.47549 2.4755 l 0.0169,1.76212 0.0169,1.76213 1.34937,0.0171 1.34938,0.0171 v 1.96724 1.96724 h -1.36872 -1.36871 l 0.0193,2.428871 c 0.0207,2.60172 0.0216,2.60912 0.35205,2.82575 0.14101,0.0924 0.35408,0.11485 1.26777,0.13328 l 1.09827,0.0222 v 1.86697 1.86696 h -1.81748 c -2.04483,0 -2.83265,-0.0813 -3.63881,-0.37551 -0.90707,-0.33104 -1.4395,-0.78637 -1.81239,-1.54996 -0.37534,-0.76859 -0.41482,-1.18658 -0.41482,-4.39159 v -2.807941 l -1.30788,-0.009 c -1.44993,-0.0101 -2.00906,0.0656 -2.46674,0.33383 -0.34442,0.20184 -0.68542,0.58082 -0.8953,0.99501 -0.32476,0.640881 -0.34428,0.894471 -0.34548,4.487351 l -10e-4,3.31787 h -2.4765 -2.4765 z"
       id="path6" /></g></svg>
