<svg xmlns="http://www.w3.org/2000/svg" xmlns:xlink="http://www.w3.org/1999/xlink" width="2000" zoomAndPan="magnify" viewBox="0 0 1500 1499.999933" height="2000" preserveAspectRatio="xMidYMid meet" version="1.0"><defs><g/><clipPath id="6b16582b47"><path d="M 12.019531 354.339844 L 196.371094 354.339844 L 196.371094 875.714844 L 12.019531 875.714844 Z M 12.019531 354.339844 " clip-rule="nonzero"/></clipPath><clipPath id="41b86376e4"><path d="M 87.019531 354.339844 L 121.371094 354.339844 C 141.265625 354.339844 160.339844 362.238281 174.40625 376.304688 C 188.46875 390.371094 196.371094 409.445312 196.371094 429.339844 L 196.371094 800.621094 C 196.371094 820.511719 188.46875 839.589844 174.40625 853.652344 C 160.339844 867.71875 141.265625 875.621094 121.371094 875.621094 L 87.019531 875.621094 C 67.125 875.621094 48.050781 867.71875 33.984375 853.652344 C 19.917969 839.589844 12.019531 820.511719 12.019531 800.621094 L 12.019531 429.339844 C 12.019531 409.445312 19.917969 390.371094 33.984375 376.304688 C 48.050781 362.238281 67.125 354.339844 87.019531 354.339844 Z M 87.019531 354.339844 " clip-rule="nonzero"/></clipPath><clipPath id="d7dd00e610"><path d="M 12.019531 749.734375 L 196.371094 749.734375 L 196.371094 875.621094 L 12.019531 875.621094 Z M 12.019531 749.734375 " clip-rule="nonzero"/></clipPath><clipPath id="5d5becbfe5"><path d="M 228.140625 247.453125 L 412.496094 247.453125 L 412.496094 876 L 228.140625 876 Z M 228.140625 247.453125 " clip-rule="nonzero"/></clipPath><clipPath id="e1251987ec"><path d="M 303.140625 247.453125 L 337.496094 247.453125 C 357.386719 247.453125 376.464844 255.355469 390.527344 269.421875 C 404.59375 283.484375 412.496094 302.5625 412.496094 322.453125 L 412.496094 800.621094 C 412.496094 820.511719 404.59375 839.589844 390.527344 853.652344 C 376.464844 867.71875 357.386719 875.621094 337.496094 875.621094 L 303.140625 875.621094 C 283.25 875.621094 264.171875 867.71875 250.109375 853.652344 C 236.042969 839.589844 228.140625 820.511719 228.140625 800.621094 L 228.140625 322.453125 C 228.140625 302.5625 236.042969 283.484375 250.109375 269.421875 C 264.171875 255.355469 283.25 247.453125 303.140625 247.453125 Z M 303.140625 247.453125 " clip-rule="nonzero"/></clipPath><clipPath id="ee4b3f99ea"><path d="M 228.140625 749.734375 L 412.496094 749.734375 L 412.496094 875.621094 L 228.140625 875.621094 Z M 228.140625 749.734375 " clip-rule="nonzero"/></clipPath><clipPath id="6a04051238"><path d="M 444.21875 467.511719 L 628.574219 467.511719 L 628.574219 875.828125 L 444.21875 875.828125 Z M 444.21875 467.511719 " clip-rule="nonzero"/></clipPath><clipPath id="642e55b37a"><path d="M 519.21875 467.511719 L 553.574219 467.511719 C 573.464844 467.511719 592.542969 475.410156 606.605469 489.476562 C 620.671875 503.542969 628.574219 522.617188 628.574219 542.511719 L 628.574219 800.621094 C 628.574219 820.511719 620.671875 839.589844 606.605469 853.652344 C 592.542969 867.71875 573.464844 875.621094 553.574219 875.621094 L 519.21875 875.621094 C 499.328125 875.621094 480.253906 867.71875 466.1875 853.652344 C 452.121094 839.589844 444.21875 820.511719 444.21875 800.621094 L 444.21875 542.511719 C 444.21875 522.617188 452.121094 503.542969 466.1875 489.476562 C 480.253906 475.410156 499.328125 467.511719 519.21875 467.511719 Z M 519.21875 467.511719 " clip-rule="nonzero"/></clipPath><clipPath id="d1b0c3d465"><path d="M 444.21875 749.734375 L 628.574219 749.734375 L 628.574219 875.621094 L 444.21875 875.621094 Z M 444.21875 749.734375 " clip-rule="nonzero"/></clipPath><clipPath id="3e064fb22b"><path d="M 660.296875 376.34375 L 844.652344 376.34375 L 844.652344 876 L 660.296875 876 Z M 660.296875 376.34375 " clip-rule="nonzero"/></clipPath><clipPath id="b843f04f48"><path d="M 735.296875 376.34375 L 769.652344 376.34375 C 789.542969 376.34375 808.621094 384.246094 822.683594 398.3125 C 836.75 412.375 844.652344 431.453125 844.652344 451.34375 L 844.652344 800.621094 C 844.652344 820.511719 836.75 839.589844 822.683594 853.652344 C 808.621094 867.71875 789.542969 875.621094 769.652344 875.621094 L 735.296875 875.621094 C 715.40625 875.621094 696.332031 867.71875 682.265625 853.652344 C 668.199219 839.589844 660.296875 820.511719 660.296875 800.621094 L 660.296875 451.34375 C 660.296875 431.453125 668.199219 412.375 682.265625 398.3125 C 696.332031 384.246094 715.40625 376.34375 735.296875 376.34375 Z M 735.296875 376.34375 " clip-rule="nonzero"/></clipPath><clipPath id="df55862335"><path d="M 660.296875 749.734375 L 844.652344 749.734375 L 844.652344 875.621094 L 660.296875 875.621094 Z M 660.296875 749.734375 " clip-rule="nonzero"/></clipPath><clipPath id="ecbf592162"><path d="M 876.375 536.671875 L 1060.730469 536.671875 L 1060.730469 875.855469 L 876.375 875.855469 Z M 876.375 536.671875 " clip-rule="nonzero"/></clipPath><clipPath id="58ab07613a"><path d="M 951.375 536.671875 L 985.730469 536.671875 C 1005.621094 536.671875 1024.699219 544.574219 1038.765625 558.636719 C 1052.828125 572.703125 1060.730469 591.78125 1060.730469 611.671875 L 1060.730469 800.621094 C 1060.730469 820.511719 1052.828125 839.589844 1038.765625 853.652344 C 1024.699219 867.71875 1005.621094 875.621094 985.730469 875.621094 L 951.375 875.621094 C 931.484375 875.621094 912.410156 867.71875 898.34375 853.652344 C 884.277344 839.589844 876.375 820.511719 876.375 800.621094 L 876.375 611.671875 C 876.375 591.78125 884.277344 572.703125 898.34375 558.636719 C 912.410156 544.574219 931.484375 536.671875 951.375 536.671875 Z M 951.375 536.671875 " clip-rule="nonzero"/></clipPath><clipPath id="852445c083"><path d="M 876.375 749.734375 L 1060.730469 749.734375 L 1060.730469 875.621094 L 876.375 875.621094 Z M 876.375 749.734375 " clip-rule="nonzero"/></clipPath><clipPath id="8bfbfec05e"><path d="M 1092.453125 150 L 1276.808594 150 L 1276.808594 875.894531 L 1092.453125 875.894531 Z M 1092.453125 150 " clip-rule="nonzero"/></clipPath><clipPath id="832f419b48"><path d="M 1167.453125 150 L 1201.808594 150 C 1221.699219 150 1240.777344 157.902344 1254.84375 171.96875 C 1268.90625 186.03125 1276.808594 205.109375 1276.808594 225 L 1276.808594 800.621094 C 1276.808594 820.511719 1268.90625 839.589844 1254.84375 853.652344 C 1240.777344 867.71875 1221.699219 875.621094 1201.808594 875.621094 L 1167.453125 875.621094 C 1147.5625 875.621094 1128.488281 867.71875 1114.421875 853.652344 C 1100.355469 839.589844 1092.453125 820.511719 1092.453125 800.621094 L 1092.453125 225 C 1092.453125 205.109375 1100.355469 186.03125 1114.421875 171.96875 C 1128.488281 157.902344 1147.5625 150 1167.453125 150 Z M 1167.453125 150 " clip-rule="nonzero"/></clipPath><clipPath id="e5b0988730"><path d="M 1092.453125 749.734375 L 1276.808594 749.734375 L 1276.808594 875.621094 L 1092.453125 875.621094 Z M 1092.453125 749.734375 " clip-rule="nonzero"/></clipPath><clipPath id="752072a06f"><path d="M 1308.53125 376.34375 L 1492.886719 376.34375 L 1492.886719 876 L 1308.53125 876 Z M 1308.53125 376.34375 " clip-rule="nonzero"/></clipPath><clipPath id="90a6eff479"><path d="M 1383.53125 376.34375 L 1417.886719 376.34375 C 1437.777344 376.34375 1456.855469 384.246094 1470.921875 398.3125 C 1484.984375 412.375 1492.886719 431.453125 1492.886719 451.34375 L 1492.886719 800.621094 C 1492.886719 820.511719 1484.984375 839.589844 1470.921875 853.652344 C 1456.855469 867.71875 1437.777344 875.621094 1417.886719 875.621094 L 1383.53125 875.621094 C 1363.640625 875.621094 1344.566406 867.71875 1330.5 853.652344 C 1316.433594 839.589844 1308.53125 820.511719 1308.53125 800.621094 L 1308.53125 451.34375 C 1308.53125 431.453125 1316.433594 412.375 1330.5 398.3125 C 1344.566406 384.246094 1363.640625 376.34375 1383.53125 376.34375 Z M 1383.53125 376.34375 " clip-rule="nonzero"/></clipPath><clipPath id="7d1c4bdb8d"><path d="M 1308.53125 749.734375 L 1492.886719 749.734375 L 1492.886719 875.621094 L 1308.53125 875.621094 Z M 1308.53125 749.734375 " clip-rule="nonzero"/></clipPath><clipPath id="8c40a37d0b"><path d="M 12.019531 906.136719 L 196.640625 906.136719 L 196.640625 938.617188 L 12.019531 938.617188 Z M 12.019531 906.136719 " clip-rule="nonzero"/></clipPath><clipPath id="04948977d9"><path d="M 227.871094 906.136719 L 412.496094 906.136719 L 412.496094 938.617188 L 227.871094 938.617188 Z M 227.871094 906.136719 " clip-rule="nonzero"/></clipPath><clipPath id="e3592dfe5b"><path d="M 443.949219 906.136719 L 628.574219 906.136719 L 628.574219 938.617188 L 443.949219 938.617188 Z M 443.949219 906.136719 " clip-rule="nonzero"/></clipPath><clipPath id="c611025a05"><path d="M 660.296875 906.136719 L 844.921875 906.136719 L 844.921875 938.617188 L 660.296875 938.617188 Z M 660.296875 906.136719 " clip-rule="nonzero"/></clipPath><clipPath id="dd7f767a34"><path d="M 876.421875 906.136719 L 1061.042969 906.136719 L 1061.042969 938.617188 L 876.421875 938.617188 Z M 876.421875 906.136719 " clip-rule="nonzero"/></clipPath><clipPath id="5bf20e9b70"><path d="M 1092.1875 906.136719 L 1276.808594 906.136719 L 1276.808594 938.617188 L 1092.1875 938.617188 Z M 1092.1875 906.136719 " clip-rule="nonzero"/></clipPath><clipPath id="771c7f54e1"><path d="M 1308.53125 906.136719 L 1493.15625 906.136719 L 1493.15625 938.617188 L 1308.53125 938.617188 Z M 1308.53125 906.136719 " clip-rule="nonzero"/></clipPath></defs><g clip-path="url(#6b16582b47)"><g clip-path="url(#41b86376e4)"><path fill="#f4a64e" d="M 12.019531 354.339844 L 196.371094 354.339844 L 196.371094 875.714844 L 12.019531 875.714844 Z M 12.019531 354.339844 " fill-opacity="1" fill-rule="nonzero"/></g></g><g clip-path="url(#d7dd00e610)"><path fill="#f4a64e" d="M 12.019531 749.734375 L 196.421875 749.734375 L 196.421875 875.621094 L 12.019531 875.621094 Z M 12.019531 749.734375 " fill-opacity="1" fill-rule="nonzero"/></g><g fill="#f4a64e" fill-opacity="1"><g transform="translate(-5.651482, 1234.102126)"><g><path d="M 19.828125 0 L 19.828125 -209.34375 L 71.765625 -209.34375 L 72.15625 -136.78125 L 78.109375 -136.78125 C 81.015625 -155.289062 85.375 -170.226562 91.1875 -181.59375 C 97.007812 -192.957031 104.347656 -201.347656 113.203125 -206.765625 C 122.054688 -212.179688 132.5625 -214.890625 144.71875 -214.890625 C 153.4375 -214.890625 161.234375 -213.4375 168.109375 -210.53125 C 174.984375 -207.625 180.796875 -203.128906 185.546875 -197.046875 C 190.304688 -190.972656 194.140625 -182.976562 197.046875 -173.0625 C 199.960938 -163.15625 201.679688 -151.0625 202.203125 -136.78125 L 207.359375 -136.78125 C 210.535156 -155.289062 215.296875 -170.289062 221.640625 -181.78125 C 227.984375 -193.28125 235.910156 -201.671875 245.421875 -206.953125 C 254.941406 -212.242188 265.78125 -214.890625 277.9375 -214.890625 C 288.769531 -214.890625 298.148438 -212.84375 306.078125 -208.75 C 314.015625 -204.65625 320.492188 -199.101562 325.515625 -192.09375 C 330.535156 -185.09375 334.5 -177.097656 337.40625 -168.109375 C 340.3125 -159.117188 342.425781 -149.664062 343.75 -139.75 C 345.070312 -129.84375 345.734375 -120 345.734375 -110.21875 L 345.734375 0 L 281.5 0 L 281.5 -104.28125 C 281.5 -108.507812 281.300781 -113.726562 280.90625 -119.9375 C 280.507812 -126.144531 279.382812 -132.289062 277.53125 -138.375 C 275.6875 -144.457031 272.847656 -149.546875 269.015625 -153.640625 C 265.179688 -157.734375 259.828125 -159.78125 252.953125 -159.78125 C 245.285156 -159.78125 238.546875 -156.804688 232.734375 -150.859375 C 226.921875 -144.910156 222.296875 -136.453125 218.859375 -125.484375 C 215.421875 -114.515625 213.703125 -101.234375 213.703125 -85.640625 L 213.703125 0 L 151.0625 0 L 151.0625 -103.875 C 151.0625 -108.101562 150.863281 -113.320312 150.46875 -119.53125 C 150.070312 -125.75 149.015625 -131.894531 147.296875 -137.96875 C 145.578125 -144.050781 142.800781 -149.207031 138.96875 -153.4375 C 135.132812 -157.664062 129.519531 -159.78125 122.125 -159.78125 C 114.71875 -159.78125 108.171875 -157.003906 102.484375 -151.453125 C 96.804688 -145.898438 92.316406 -137.640625 89.015625 -126.671875 C 85.710938 -115.703125 84.0625 -102.023438 84.0625 -85.640625 L 84.0625 0 Z M 19.828125 0 "/></g></g></g><g fill="#f4a64e" fill-opacity="1"><g transform="translate(341.664994, 1234.102126)"><g><path d="M 97.9375 67.796875 C 88.414062 67.796875 78.4375 67.003906 68 65.421875 C 57.5625 63.835938 47.515625 61.390625 37.859375 58.078125 C 28.210938 54.773438 19.554688 50.484375 11.890625 45.203125 L 26.96875 -15.0625 C 36.476562 -6.082031 47.441406 0.390625 59.859375 4.359375 C 72.285156 8.328125 83.921875 10.3125 94.765625 10.3125 C 106.390625 10.3125 116.164062 8.394531 124.09375 4.5625 C 132.03125 0.726562 138.375 -4.554688 143.125 -11.296875 C 147.882812 -18.035156 151.320312 -25.832031 153.4375 -34.6875 C 155.550781 -43.539062 156.742188 -53.125 157.015625 -63.4375 L 157.796875 -95.953125 L 151.0625 -95.953125 C 149.476562 -78.503906 145.84375 -64.097656 140.15625 -52.734375 C 134.476562 -41.367188 127.078125 -33.039062 117.953125 -27.75 C 108.835938 -22.46875 98.066406 -19.828125 85.640625 -19.828125 C 72.160156 -19.828125 61.054688 -22.601562 52.328125 -28.15625 C 43.609375 -33.707031 36.867188 -40.773438 32.109375 -49.359375 C 27.359375 -57.953125 23.925781 -67.070312 21.8125 -76.71875 C 19.695312 -86.363281 18.441406 -95.414062 18.046875 -103.875 C 17.648438 -112.332031 17.453125 -118.941406 17.453125 -123.703125 L 17.453125 -209.34375 L 81.28125 -209.34375 L 81.28125 -141.9375 C 81.28125 -136.914062 81.34375 -131.363281 81.46875 -125.28125 C 81.601562 -119.207031 82.132812 -113.128906 83.0625 -107.046875 C 83.988281 -100.972656 85.570312 -95.359375 87.8125 -90.203125 C 90.0625 -85.046875 93.101562 -80.945312 96.9375 -77.90625 C 100.769531 -74.863281 105.59375 -73.34375 111.40625 -73.34375 C 118.550781 -73.34375 124.367188 -75.523438 128.859375 -79.890625 C 133.347656 -84.253906 136.847656 -89.9375 139.359375 -96.9375 C 141.867188 -103.945312 143.585938 -111.347656 144.515625 -119.140625 C 145.441406 -126.941406 145.90625 -134.28125 145.90625 -141.15625 L 145.90625 -209.34375 L 209.734375 -209.34375 L 209.734375 -61.0625 C 209.734375 -52.601562 209.140625 -43.484375 207.953125 -33.703125 C 206.765625 -23.921875 204.71875 -14.207031 201.8125 -4.5625 C 198.90625 5.082031 194.804688 14.203125 189.515625 22.796875 C 184.234375 31.390625 177.492188 39.117188 169.296875 45.984375 C 161.109375 52.859375 151.128906 58.210938 139.359375 62.046875 C 127.597656 65.878906 113.789062 67.796875 97.9375 67.796875 Z M 97.9375 67.796875 "/></g></g></g><g fill="#f4a64e" fill-opacity="1"><g transform="translate(554.574662, 1234.102126)"><g><path d="M 108.234375 5.546875 C 94.234375 5.546875 81.347656 4.222656 69.578125 1.578125 C 57.816406 -1.054688 47.640625 -5.082031 39.046875 -10.5 C 30.460938 -15.925781 23.660156 -22.734375 18.640625 -30.921875 C 13.617188 -39.117188 10.707031 -48.898438 9.90625 -60.265625 L 61.453125 -73.75 C 62.773438 -67.132812 65.414062 -61.316406 69.375 -56.296875 C 73.34375 -51.273438 78.828125 -47.375 85.828125 -44.59375 C 92.835938 -41.820312 101.363281 -40.4375 111.40625 -40.4375 C 120.925781 -40.4375 128.660156 -41.890625 134.609375 -44.796875 C 140.554688 -47.710938 143.53125 -52.207031 143.53125 -58.28125 C 143.53125 -62.25 142.140625 -65.421875 139.359375 -67.796875 C 136.585938 -70.179688 132.09375 -72.363281 125.875 -74.34375 C 119.664062 -76.320312 111.410156 -78.367188 101.109375 -80.484375 C 89.742188 -83.128906 78.773438 -86.035156 68.203125 -89.203125 C 57.628906 -92.378906 48.175781 -96.34375 39.84375 -101.09375 C 31.519531 -105.851562 24.910156 -112.066406 20.015625 -119.734375 C 15.128906 -127.398438 12.6875 -136.914062 12.6875 -148.28125 C 12.6875 -162.03125 16.382812 -173.796875 23.78125 -183.578125 C 31.1875 -193.359375 41.695312 -201.019531 55.3125 -206.5625 C 68.925781 -212.113281 85.113281 -214.890625 103.875 -214.890625 C 120.789062 -214.890625 136.054688 -212.507812 149.671875 -207.75 C 163.285156 -203 174.320312 -195.796875 182.78125 -186.140625 C 191.238281 -176.492188 195.863281 -164.140625 196.65625 -149.078125 L 143.921875 -137.1875 C 143.660156 -143.53125 141.742188 -149.144531 138.171875 -154.03125 C 134.609375 -158.925781 129.851562 -162.628906 123.90625 -165.140625 C 117.957031 -167.648438 110.882812 -168.90625 102.6875 -168.90625 C 92.90625 -168.90625 85.367188 -167.25 80.078125 -163.9375 C 74.796875 -160.632812 72.15625 -156.472656 72.15625 -151.453125 C 72.15625 -147.222656 73.875 -143.71875 77.3125 -140.9375 C 80.75 -138.164062 85.90625 -135.851562 92.78125 -134 C 99.65625 -132.15625 108.113281 -130.046875 118.15625 -127.671875 C 127.9375 -125.816406 137.847656 -123.4375 147.890625 -120.53125 C 157.929688 -117.625 167.113281 -113.789062 175.4375 -109.03125 C 183.769531 -104.269531 190.507812 -98.054688 195.65625 -90.390625 C 200.8125 -82.734375 203.390625 -72.820312 203.390625 -60.65625 C 203.390625 -47.175781 199.6875 -35.476562 192.28125 -25.5625 C 184.882812 -15.65625 174.113281 -7.992188 159.96875 -2.578125 C 145.832031 2.835938 128.585938 5.546875 108.234375 5.546875 Z M 108.234375 5.546875 "/></g></g></g><g fill="#f4a64e" fill-opacity="1"><g transform="translate(750.832191, 1234.102126)"><g><path d="M 116.96875 5.546875 C 96.082031 5.546875 77.644531 1.453125 61.65625 -6.734375 C 45.664062 -14.929688 33.175781 -27.15625 24.1875 -43.40625 C 15.195312 -59.664062 10.703125 -80.085938 10.703125 -104.671875 C 10.703125 -129.785156 15.328125 -150.46875 24.578125 -166.71875 C 33.828125 -182.976562 46.445312 -195.070312 62.4375 -203 C 78.4375 -210.925781 96.742188 -214.890625 117.359375 -214.890625 C 138.503906 -214.890625 157.003906 -210.789062 172.859375 -202.59375 C 188.722656 -194.40625 201.148438 -182.179688 210.140625 -165.921875 C 219.128906 -149.671875 223.625 -129.253906 223.625 -104.671875 C 223.625 -79.296875 218.929688 -58.476562 209.546875 -42.21875 C 200.160156 -25.96875 187.40625 -13.941406 171.28125 -6.140625 C 155.15625 1.648438 137.050781 5.546875 116.96875 5.546875 Z M 118.546875 -41.234375 C 124.628906 -41.234375 130.179688 -42.351562 135.203125 -44.59375 C 140.222656 -46.84375 144.453125 -50.410156 147.890625 -55.296875 C 151.328125 -60.191406 154.035156 -66.40625 156.015625 -73.9375 C 157.992188 -81.476562 158.984375 -90.398438 158.984375 -100.703125 C 158.984375 -112.066406 157.859375 -121.847656 155.609375 -130.046875 C 153.367188 -138.242188 150.398438 -144.984375 146.703125 -150.265625 C 143.003906 -155.554688 138.441406 -159.457031 133.015625 -161.96875 C 127.597656 -164.476562 121.71875 -165.734375 115.375 -165.734375 C 109.5625 -165.734375 104.144531 -164.539062 99.125 -162.15625 C 94.101562 -159.78125 89.875 -156.210938 86.4375 -151.453125 C 83 -146.703125 80.285156 -140.492188 78.296875 -132.828125 C 76.316406 -125.160156 75.328125 -116.039062 75.328125 -105.46875 C 75.328125 -94.363281 76.382812 -84.710938 78.5 -76.515625 C 80.613281 -68.328125 83.65625 -61.65625 87.625 -56.5 C 91.59375 -51.34375 96.148438 -47.507812 101.296875 -45 C 106.453125 -42.488281 112.203125 -41.234375 118.546875 -41.234375 Z M 118.546875 -41.234375 "/></g></g></g><g fill="#f4a64e" fill-opacity="1"><g transform="translate(969.68897, 1234.102126)"><g><path d="M 49.171875 5.15625 C 35.421875 5.15625 25.175781 2.25 18.4375 -3.5625 C 11.695312 -9.382812 8.328125 -18.375 8.328125 -30.53125 C 8.328125 -42.957031 11.695312 -52.078125 18.4375 -57.890625 C 25.175781 -63.703125 35.421875 -66.609375 49.171875 -66.609375 C 62.910156 -66.609375 73.21875 -63.703125 80.09375 -57.890625 C 86.96875 -52.078125 90.40625 -42.957031 90.40625 -30.53125 C 90.40625 -6.738281 76.660156 5.15625 49.171875 5.15625 Z M 49.171875 5.15625 "/></g></g></g><g fill="#f4a64e" fill-opacity="1"><g transform="translate(1052.949576, 1234.102126)"><g><path d="M 19.828125 0 L 19.828125 -209.34375 L 72.5625 -209.34375 L 72.953125 -136.78125 L 78.90625 -136.78125 C 81.539062 -155.289062 85.960938 -170.226562 92.171875 -181.59375 C 98.390625 -192.957031 106.320312 -201.347656 115.96875 -206.765625 C 125.613281 -212.179688 137.179688 -214.890625 150.671875 -214.890625 C 162.035156 -214.890625 171.878906 -212.972656 180.203125 -209.140625 C 188.523438 -205.304688 195.394531 -200.085938 200.8125 -193.484375 C 206.238281 -186.878906 210.535156 -179.347656 213.703125 -170.890625 C 216.878906 -162.429688 219.191406 -153.3125 220.640625 -143.53125 C 222.097656 -133.75 222.828125 -123.96875 222.828125 -114.1875 L 222.828125 0 L 158.59375 0 L 158.59375 -106.65625 C 158.59375 -111.414062 158.328125 -116.832031 157.796875 -122.90625 C 157.273438 -128.988281 156.019531 -134.9375 154.03125 -140.75 C 152.050781 -146.5625 148.878906 -151.382812 144.515625 -155.21875 C 140.160156 -159.050781 134.015625 -160.96875 126.078125 -160.96875 C 117.097656 -160.96875 109.5 -158.0625 103.28125 -152.25 C 97.070312 -146.4375 92.316406 -137.910156 89.015625 -126.671875 C 85.710938 -115.441406 84.0625 -101.632812 84.0625 -85.25 L 84.0625 0 Z M 19.828125 0 "/></g></g></g><g fill="#f4a64e" fill-opacity="1"><g transform="translate(1277.753661, 1234.102126)"><g><path d="M 103.484375 68.59375 C 80.222656 68.59375 61.390625 66.738281 46.984375 63.03125 C 32.578125 59.332031 22.132812 54.113281 15.65625 47.375 C 9.1875 40.632812 5.953125 32.507812 5.953125 23 C 5.953125 11.101562 10.707031 1.519531 20.21875 -5.75 C 29.738281 -13.019531 43.617188 -17.578125 61.859375 -19.421875 L 61.859375 -24.578125 C 47.847656 -24.578125 36.941406 -26.492188 29.140625 -30.328125 C 21.347656 -34.160156 17.453125 -40.039062 17.453125 -47.96875 C 17.453125 -55.632812 21.148438 -62.507812 28.546875 -68.59375 C 35.953125 -74.675781 48.113281 -78.507812 65.03125 -80.09375 L 65.03125 -86.03125 C 49.695312 -88.414062 37.535156 -94.363281 28.546875 -103.875 C 19.554688 -113.394531 15.0625 -125.820312 15.0625 -141.15625 C 15.0625 -154.632812 18.628906 -166.59375 25.765625 -177.03125 C 32.910156 -187.46875 43.617188 -195.726562 57.890625 -201.8125 C 72.160156 -207.894531 89.738281 -210.9375 110.625 -210.9375 L 217.28125 -210.9375 L 217.28125 -162.15625 L 148.28125 -171.28125 L 148.28125 -164.546875 C 167.84375 -161.898438 181.390625 -157.46875 188.921875 -151.25 C 196.453125 -145.039062 200.21875 -137.046875 200.21875 -127.265625 C 200.21875 -116.960938 196.914062 -107.84375 190.3125 -99.90625 C 183.707031 -91.976562 173.992188 -85.769531 161.171875 -81.28125 C 148.347656 -76.789062 132.554688 -74.546875 113.796875 -74.546875 C 109.566406 -74.546875 105.003906 -74.742188 100.109375 -75.140625 C 95.222656 -75.535156 89.078125 -76.257812 81.671875 -77.3125 C 77.179688 -74.40625 73.742188 -71.828125 71.359375 -69.578125 C 68.984375 -67.335938 67.796875 -65.160156 67.796875 -63.046875 C 67.796875 -61.722656 68.390625 -60.597656 69.578125 -59.671875 C 70.773438 -58.742188 72.492188 -58.082031 74.734375 -57.6875 C 76.984375 -57.289062 79.5625 -57.09375 82.46875 -57.09375 L 145.90625 -57.09375 C 151.457031 -57.09375 158.460938 -56.757812 166.921875 -56.09375 C 175.378906 -55.4375 183.835938 -53.390625 192.296875 -49.953125 C 200.753906 -46.515625 207.820312 -40.960938 213.5 -33.296875 C 219.1875 -25.640625 222.03125 -14.804688 222.03125 -0.796875 C 222.03125 15.066406 217.800781 28.085938 209.34375 38.265625 C 200.882812 48.441406 187.863281 56.039062 170.28125 61.0625 C 152.707031 66.082031 130.441406 68.59375 103.484375 68.59375 Z M 107.84375 15.0625 C 124.5 15.0625 137.054688 14.398438 145.515625 13.078125 C 153.972656 11.765625 159.65625 9.648438 162.5625 6.734375 C 165.46875 3.828125 166.921875 0.394531 166.921875 -3.5625 C 166.921875 -7.789062 165.925781 -11.160156 163.9375 -13.671875 C 161.957031 -16.191406 159.445312 -17.910156 156.40625 -18.828125 C 153.375 -19.753906 150.335938 -20.347656 147.296875 -20.609375 C 144.253906 -20.878906 141.804688 -21.015625 139.953125 -21.015625 L 87.625 -21.015625 C 78.375 -19.691406 71.832031 -17.179688 68 -13.484375 C 64.164062 -9.785156 62.25 -5.554688 62.25 -0.796875 C 62.25 3.703125 63.898438 7.070312 67.203125 9.3125 C 70.503906 11.5625 75.59375 13.082031 82.46875 13.875 C 89.34375 14.664062 97.800781 15.0625 107.84375 15.0625 Z M 109.828125 -107.84375 C 119.867188 -107.84375 127.46875 -110.679688 132.625 -116.359375 C 137.78125 -122.046875 140.359375 -129.515625 140.359375 -138.765625 C 140.359375 -148.285156 137.710938 -156.148438 132.421875 -162.359375 C 127.140625 -168.566406 119.609375 -171.671875 109.828125 -171.671875 C 100.046875 -171.671875 92.378906 -168.566406 86.828125 -162.359375 C 81.273438 -156.148438 78.5 -148.285156 78.5 -138.765625 C 78.5 -132.691406 79.6875 -127.273438 82.0625 -122.515625 C 84.445312 -117.753906 88.019531 -114.117188 92.78125 -111.609375 C 97.539062 -109.097656 103.222656 -107.84375 109.828125 -107.84375 Z M 109.828125 -107.84375 "/></g></g></g><g clip-path="url(#5d5becbfe5)"><g clip-path="url(#e1251987ec)"><path fill="#f4a64e" d="M 228.140625 247.453125 L 412.496094 247.453125 L 412.496094 875.410156 L 228.140625 875.410156 Z M 228.140625 247.453125 " fill-opacity="1" fill-rule="nonzero"/></g></g><g clip-path="url(#ee4b3f99ea)"><path fill="#f4a64e" d="M 228.140625 749.734375 L 412.542969 749.734375 L 412.542969 875.621094 L 228.140625 875.621094 Z M 228.140625 749.734375 " fill-opacity="1" fill-rule="nonzero"/></g><g clip-path="url(#6a04051238)"><g clip-path="url(#642e55b37a)"><path fill="#f4a64e" d="M 444.21875 467.511719 L 628.574219 467.511719 L 628.574219 875.828125 L 444.21875 875.828125 Z M 444.21875 467.511719 " fill-opacity="1" fill-rule="nonzero"/></g></g><g clip-path="url(#d1b0c3d465)"><path fill="#f4a64e" d="M 444.21875 749.734375 L 628.621094 749.734375 L 628.621094 875.621094 L 444.21875 875.621094 Z M 444.21875 749.734375 " fill-opacity="1" fill-rule="nonzero"/></g><g clip-path="url(#3e064fb22b)"><g clip-path="url(#b843f04f48)"><path fill="#f4a64e" d="M 660.296875 376.34375 L 844.652344 376.34375 L 844.652344 875.398438 L 660.296875 875.398438 Z M 660.296875 376.34375 " fill-opacity="1" fill-rule="nonzero"/></g></g><g clip-path="url(#df55862335)"><path fill="#f4a64e" d="M 660.296875 749.734375 L 844.699219 749.734375 L 844.699219 875.621094 L 660.296875 875.621094 Z M 660.296875 749.734375 " fill-opacity="1" fill-rule="nonzero"/></g><g clip-path="url(#ecbf592162)"><g clip-path="url(#58ab07613a)"><path fill="#f4a64e" d="M 876.375 536.671875 L 1060.730469 536.671875 L 1060.730469 875.855469 L 876.375 875.855469 Z M 876.375 536.671875 " fill-opacity="1" fill-rule="nonzero"/></g></g><g clip-path="url(#852445c083)"><path fill="#f4a64e" d="M 876.375 749.734375 L 1060.777344 749.734375 L 1060.777344 875.621094 L 876.375 875.621094 Z M 876.375 749.734375 " fill-opacity="1" fill-rule="nonzero"/></g><g clip-path="url(#8bfbfec05e)"><g clip-path="url(#832f419b48)"><path fill="#f4a64e" d="M 1092.453125 150 L 1276.808594 150 L 1276.808594 875.894531 L 1092.453125 875.894531 Z M 1092.453125 150 " fill-opacity="1" fill-rule="nonzero"/></g></g><g clip-path="url(#e5b0988730)"><path fill="#f4a64e" d="M 1092.453125 749.734375 L 1276.855469 749.734375 L 1276.855469 875.621094 L 1092.453125 875.621094 Z M 1092.453125 749.734375 " fill-opacity="1" fill-rule="nonzero"/></g><g clip-path="url(#752072a06f)"><g clip-path="url(#90a6eff479)"><path fill="#f4a64e" d="M 1308.53125 376.34375 L 1492.886719 376.34375 L 1492.886719 875.398438 L 1308.53125 875.398438 Z M 1308.53125 376.34375 " fill-opacity="1" fill-rule="nonzero"/></g></g><g clip-path="url(#7d1c4bdb8d)"><path fill="#f4a64e" d="M 1308.53125 749.734375 L 1492.933594 749.734375 L 1492.933594 875.621094 L 1308.53125 875.621094 Z M 1308.53125 749.734375 " fill-opacity="1" fill-rule="nonzero"/></g><g clip-path="url(#8c40a37d0b)"><path fill="#f4a64e" d="M 12.019531 906.136719 L 196.617188 906.136719 L 196.617188 938.617188 L 12.019531 938.617188 Z M 12.019531 906.136719 " fill-opacity="1" fill-rule="nonzero"/></g><g clip-path="url(#04948977d9)"><path fill="#f4a64e" d="M 227.871094 906.136719 L 412.472656 906.136719 L 412.472656 938.617188 L 227.871094 938.617188 Z M 227.871094 906.136719 " fill-opacity="1" fill-rule="nonzero"/></g><g clip-path="url(#e3592dfe5b)"><path fill="#f4a64e" d="M 443.949219 906.136719 L 628.550781 906.136719 L 628.550781 938.617188 L 443.949219 938.617188 Z M 443.949219 906.136719 " fill-opacity="1" fill-rule="nonzero"/></g><g clip-path="url(#c611025a05)"><path fill="#f4a64e" d="M 660.296875 906.136719 L 844.898438 906.136719 L 844.898438 938.617188 L 660.296875 938.617188 Z M 660.296875 906.136719 " fill-opacity="1" fill-rule="nonzero"/></g><g clip-path="url(#dd7f767a34)"><path fill="#f4a64e" d="M 876.421875 906.136719 L 1061.019531 906.136719 L 1061.019531 938.617188 L 876.421875 938.617188 Z M 876.421875 906.136719 " fill-opacity="1" fill-rule="nonzero"/></g><g clip-path="url(#5bf20e9b70)"><path fill="#f4a64e" d="M 1092.1875 906.136719 L 1276.785156 906.136719 L 1276.785156 938.617188 L 1092.1875 938.617188 Z M 1092.1875 906.136719 " fill-opacity="1" fill-rule="nonzero"/></g><g clip-path="url(#771c7f54e1)"><path fill="#f4a64e" d="M 1308.53125 906.136719 L 1493.132812 906.136719 L 1493.132812 938.617188 L 1308.53125 938.617188 Z M 1308.53125 906.136719 " fill-opacity="1" fill-rule="nonzero"/></g></svg>